Coordinates
version=1
nRows=27
nColumns=38
inDegrees=no

Units are S.I. units (second, meters, Newtons, ...)
If the header above contains a line with 'inDegrees', this indicates whether rotational values are in degrees (yes) or radians (no).

endheader
time	pelvis_tilt	pelvis_list	pelvis_rotation	pelvis_tx	pelvis_ty	pelvis_tz	hip_flexion_r	hip_adduction_r	hip_rotation_r	knee_angle_r	ankle_angle_r	subtalar_angle_r	mtp_angle_r	hip_flexion_l	hip_adduction_l	hip_rotation_l	knee_angle_l	ankle_angle_l	subtalar_angle_l	mtp_angle_l	lumbar_extension	lumbar_bending	lumbar_rotation	arm_flex_r	arm_add_r	arm_rot_r	elbow_flex_r	pro_sup_r	wrist_flex_r	wrist_dev_r	arm_flex_l	arm_add_l	arm_rot_l	elbow_flex_l	pro_sup_l	wrist_flex_l	wrist_dev_l
1.15	2.04511	1.48324	-0.56112	0.824701	0.540188	0.953595	-0.132137	0.112055	-0.209854	0.145858	0.122057	0	0	0.558593	-0.176719	-0.158612	0.830544	0.121982	0	0	-0.107029	0.121243	0.232416	0.018108	-0.337565	0.723626	0.390496	0.902144	0	0	0.10256	-0.132265	0.409893	0.209785	1.43893	0	0
1.16	2.04947	1.4826	-0.563868	0.824971	0.548207	0.952758	-0.148828	0.113697	-0.204695	0.134164	0.125886	0	0	0.546716	-0.173984	-0.174808	0.771503	0.125372	0	0	-0.108238	0.121105	0.230127	0.021074	-0.335899	0.724418	0.387508	0.902571	0	0	0.10407	-0.133187	0.411116	0.20801	1.44097	0	0
1.17	2.05084	1.48195	-0.5637	0.825199	0.556377	0.951802	-0.165769	0.115424	-0.198562	0.122013	0.128808	0	0	0.533059	-0.170696	-0.191647	0.710509	0.130694	0	0	-0.108979	0.121166	0.227656	0.0238017	-0.334384	0.727017	0.384463	0.902389	0	0	0.105081	-0.133597	0.40921	0.20577	1.44185	0	0
1.18	2.06161	1.4812	-0.572416	0.825312	0.564668	0.950835	-0.184355	0.116849	-0.191167	0.108578	0.128564	0	0	0.515953	-0.165862	-0.209496	0.645628	0.134199	0	0	-0.11041	0.120753	0.224796	0.0263579	-0.332954	0.731285	0.381734	0.900351	0	0	0.105993	-0.133735	0.408384	0.202889	1.44226	0	0
1.19	2.28426	1.48269	-0.802605	0.824367	0.57556	0.951882	-0.223608	0.0982763	-0.177696	0.0888227	0.125345	0	0	0.462184	-0.145633	-0.250411	0.553574	0.133785	0	0	-0.121806	0.108397	0.229319	0.0243244	-0.333772	0.735911	0.37878	0.897701	0	0	0.10018	-0.131112	0.402734	0.201828	1.44943	0	0
1.2	2.3292	1.48033	-0.844804	0.824313	0.584056	0.951085	-0.246994	0.0980032	-0.168461	0.0734142	0.122754	0	0	0.434063	-0.134426	-0.267475	0.47521	0.127745	0	0	-0.12682	0.105907	0.226411	0.0268708	-0.33179	0.739869	0.376021	0.894975	0	0	0.101535	-0.131437	0.399124	0.199939	1.45855	0	0
1.21	2.10768	1.47752	-0.608935	0.825165	0.590038	0.947511	-0.24375	0.12159	-0.165866	0.0664296	0.122454	0	0	0.447341	-0.140428	-0.255051	0.426148	0.127214	0	0	-0.116321	0.118675	0.214526	0.0326282	-0.326964	0.742144	0.373326	0.891774	0	0	0.108475	-0.134591	0.397335	0.197628	1.46629	0	0
1.22	2.12352	1.47704	-0.622046	0.824858	0.598888	0.946253	-0.262244	0.121402	-0.158868	0.055152	0.123481	0	0	0.418928	-0.127474	-0.262402	0.344953	0.117241	0	0	-0.117157	0.11769	0.211553	0.0332676	-0.324955	0.74421	0.370425	0.889696	0	0	0.108574	-0.133875	0.38968	0.19487	1.47525	0	0
1.23	2.14786	1.47683	-0.645058	0.824501	0.60826	0.944936	-0.282238	0.119909	-0.149989	0.0433427	0.123479	0	0	0.386268	-0.112543	-0.272171	0.25925	0.103733	0	0	-0.117341	0.11615	0.210003	0.0321349	-0.323515	0.746783	0.368557	0.88689	0	0	0.107608	-0.133118	0.380926	0.192285	1.48524	0	0
1.24	2.16353	1.47704	-0.659303	0.824046	0.617907	0.943395	-0.300692	0.118252	-0.142377	0.0333023	0.125242	0	0	0.352747	-0.0965747	-0.274869	0.172604	0.0877057	0	0	-0.11581	0.11487	0.208478	0.0298612	-0.322453	0.750422	0.367132	0.883911	0	0	0.10607	-0.132734	0.371599	0.190266	1.49607	0	0
1.25	2.1773	1.47674	-0.67141	0.823496	0.627758	0.941749	-0.318602	0.116866	-0.136245	0.0249011	0.128099	0	0	0.318195	-0.081109	-0.27108	0.0881452	0.0679032	0	0	-0.113932	0.114205	0.207035	0.027012	-0.321648	0.754354	0.365604	0.879993	0	0	0.104551	-0.132425	0.363302	0.187328	1.50794	0	0
1.26	2.17656	1.47603	-0.669857	0.823021	0.637847	0.939903	-0.334542	0.116203	-0.130522	0.0190741	0.131842	0	0	0.286287	-0.0687078	-0.265953	0.012709	0.0471146	0	0	-0.11062	0.114795	0.206654	0.023278	-0.321438	0.759359	0.364596	0.874885	0	0	0.101933	-0.132559	0.356842	0.185346	1.5179	0	0
1.27	2.16264	1.4759	-0.650504	0.822408	0.6473	0.937627	-0.342387	0.122324	-0.120366	0.0237619	0.13329	0	0	0.284725	-0.0634243	-0.271816	0	0.0441708	0	0	-0.10626	0.115138	0.204598	0.0187667	-0.320379	0.760877	0.363144	0.873918	0	0	0.100839	-0.133937	0.356746	0.184418	1.52016	0	0
1.28	2.15207	1.47496	-0.635879	0.821677	0.656984	0.935663	-0.351941	0.123009	-0.120706	0.0277861	0.139443	0	0	0.284663	-0.0614758	-0.280931	0	0.0447098	0	0	-0.102946	0.116091	0.202994	0.0142357	-0.319581	0.762136	0.362352	0.871905	0	0	0.098862	-0.135152	0.356008	0.18439	1.5225	0	0
1.29	2.13782	1.47481	-0.617641	0.820949	0.666926	0.933781	-0.359081	0.122774	-0.125068	0.0351052	0.1462	0	0	0.282822	-0.0586621	-0.288206	0	0.0457167	0	0	-0.0983537	0.116724	0.201266	0.00870512	-0.318673	0.762298	0.362007	0.869121	0	0	0.0960623	-0.136255	0.355018	0.183807	1.52553	0	0
1.3	2.12689	1.47543	-0.602957	0.82015	0.6772	0.932013	-0.364107	0.120956	-0.133374	0.0463049	0.15356	0	0	0.278449	-0.0545536	-0.291893	0	0.0435718	0	0	-0.0932795	0.116658	0.199596	0.00231798	-0.317739	0.760038	0.362215	0.865518	0	0	0.0928716	-0.136843	0.353535	0.182723	1.52953	0	0
1.31	1.92772	1.46152	-0.407955	0.81807	0.686934	0.93038	-0.349556	0.135645	-0.133576	0.0721188	0.15641	0	0	0.282809	-0.073467	-0.285122	0	0.0388896	0	0	-0.0797371	0.145926	0.205403	-0.00610065	-0.328589	0.757534	0.366503	0.862009	0	0	0.0861375	-0.126	0.35062	0.180731	1.53267	0	0
1.32	1.90976	1.4625	-0.389904	0.817272	0.697613	0.928783	-0.350452	0.131361	-0.14232	0.0896166	0.164451	0	0	0.275109	-0.0692786	-0.282325	0	0.0293591	0	0	-0.0738357	0.145961	0.207152	-0.0140478	-0.328596	0.757155	0.367956	0.8605	0	0	0.081971	-0.12584	0.347798	0.180461	1.53644	0	0
1.33	1.9294	1.46476	-0.409775	0.816424	0.70856	0.927649	-0.354991	0.123733	-0.151297	0.107219	0.171714	0	0	0.263307	-0.0628086	-0.28122	0	0.0220845	0	0	-0.0716153	0.142804	0.209428	-0.0218561	-0.3278	0.755822	0.368995	0.859419	0	0	0.0778482	-0.126482	0.344393	0.181333	1.54162	0	0
1.34	2.17902	1.48081	-0.656096	0.816857	0.720322	0.926911	-0.375251	0.0953023	-0.172778	0.121883	0.186051	0	0	0.238618	-0.0333828	-0.287921	0	0.0101727	0	0	-0.0813655	0.108923	0.20915	-0.0273808	-0.316136	0.754171	0.366878	0.857215	0	0	0.0780314	-0.137636	0.339836	0.182015	1.5505	0	0
1.35	2.2758	1.48468	-0.750311	0.815601	0.731849	0.926374	-0.38235	0.0816934	-0.188467	0.141479	0.191991	0	0	0.22567	-0.0209476	-0.287192	0	-0.00884275	0	0	-0.0814517	0.0996684	0.209182	-0.0357975	-0.313928	0.749134	0.367477	0.855154	0	0	0.0742237	-0.139416	0.334069	0.181725	1.55988	0	0
1.36	2.35091	1.48923	-0.823296	0.814103	0.74333	0.925868	-0.384279	0.0680363	-0.204727	0.164772	0.196063	0	0	0.216615	-0.0102114	-0.290295	0	-0.0380643	0	0	-0.0788254	0.0917055	0.209516	-0.044732	-0.312537	0.744245	0.36873	0.853822	0	0	0.070195	-0.140275	0.326869	0.180816	1.56956	0	0
1.37	2.42117	1.49459	-0.892291	0.812566	0.754805	0.925464	-0.382348	0.0535276	-0.220609	0.191555	0.198106	0	0	0.209128	-0.000639396	-0.297078	1.11821e-06	-0.0685117	0	0	-0.0748194	0.0836568	0.210654	-0.0537805	-0.311016	0.738948	0.369892	0.853458	0	0	0.0662672	-0.140637	0.319488	0.179315	1.5708	0	0
1.38	2.46915	1.49924	-0.942612	0.810713	0.766327	0.925423	-0.380398	0.029409	-0.249908	0.218621	0.205569	0	0	0.204192	0.00670069	-0.303552	0.00622485	-0.090309	0	0	-0.0699437	0.0786054	0.213351	-0.0626012	-0.310877	0.732912	0.371475	0.853458	0	0	0.0606594	-0.139863	0.313178	0.178518	1.5708	0	0
1.39	2.54528	1.50952	-1.02004	0.808065	0.776602	0.925255	-0.373763	0.0102225	-0.270779	0.23831	0.199684	0	0	0.21381	0.0166877	-0.312848	0.0317365	-0.097382	0	0	-0.0636044	0.0704946	0.217455	-0.0705233	-0.313961	0.725925	0.375233	0.853691	0	0	0.057782	-0.136053	0.309915	0.177302	1.5708	0	0
1.4	2.71845	1.50899	-1.18444	0.806395	0.788454	0.926073	-0.365508	-0.0078809	-0.285445	0.29068	0.196556	0	0	0.211323	0.0245867	-0.314169	0.0623397	-0.0878612	0	0	-0.0654598	0.0592289	0.212206	-0.0794777	-0.310164	0.719867	0.377252	0.854487	0	0	0.0547859	-0.138837	0.306885	0.175677	1.5708	0	0
1.41	2.87654	1.51149	-1.33805	0.804005	0.799391	0.926857	-0.3541	-0.0285193	-0.300864	0.334921	0.186016	0	0	0.215276	0.0338661	-0.317549	0.0949905	-0.0733966	0	0	-0.0648847	0.0494311	0.211054	-0.0872393	-0.310593	0.714763	0.380844	0.855884	0	0	0.0527292	-0.137849	0.305271	0.174807	1.5708	0	0
